<svg xmlns="http://www.w3.org/2000/svg" width="48.538" height="35.299" viewBox="0 0 48.538 35.299"><path d="M17.907,17.3c0,1.242-.13,1.863-1.031,1.863-.941,0-1.089-.564-1.089-1.692V7.556h-7.3V19.2a7.294,7.294,0,0,0,1.632,5.007,5.453,5.453,0,0,0,4.321,1.966,7.1,7.1,0,0,0,3.637-1.1c-.686,2.6-2.227,3.9-4.539,3.9a7.61,7.61,0,0,1-2.556-.61A13.884,13.884,0,0,1,8.482,27.2v6.052a17.532,17.532,0,0,0,2.495,1.291,11.064,11.064,0,0,0,3.965.76,9.985,9.985,0,0,0,7.65-3.459,10.831,10.831,0,0,0,2.62-7.638V7.556h-7.3ZM34.469.089C25.8.87,26.39,10.139,26.39,10.139v16.21c4.713,0,7.069-2.262,7.069-5.4V18.837h3.476V11.786H33.459v-.944A3.92,3.92,0,0,1,34.239,8.3a2.579,2.579,0,0,1,2.05-.89c.581.007,1.65.2,1.866,1.037l.016.067v7.349a11.518,11.518,0,0,0,1.6,6.5A9.174,9.174,0,0,0,43.192,25.4a9.64,9.64,0,0,0,4.546,1.119c.178,0,.5-.005.8-.019V19.033c-1.494,0-2.135-.276-2.611-.847a5.185,5.185,0,0,1-.707-3.109h2.544V7.556H45.355C44.9,4.736,43.209.488,36.927.015c0,0-.744-.028-1.327-.008-.454.016-1.131.082-1.131.082ZM9.773,25.763l.005.011A9.574,9.574,0,0,1,7.3,26.8v.038L7.28,26.8a5.965,5.965,0,0,1-1.274.147,5.5,5.5,0,0,1-4.36-1.983A7.36,7.36,0,0,1,0,19.916V.488H7.3V19.917a7.351,7.351,0,0,0,1.641,5.05,6.384,6.384,0,0,0,.828.8Z" transform="translate(0 0)"></path></svg>