<svg xmlns="http://www.w3.org/2000/svg" width="52.542" height="52.542" viewBox="0 0 52.542 52.542"><g transform="translate(0 0)"><path d="M29.064,2.865A26.271,26.271,0,1,0,55.335,29.136,26.271,26.271,0,0,0,29.064,2.865Zm0,50.187A23.916,23.916,0,1,1,52.98,29.136,23.915,23.915,0,0,1,29.064,53.052Z" transform="translate(-2.793 -2.865)" fill-rule="evenodd"></path><path d="M77.692,30.875a18.74,18.74,0,0,1,10.466,0l-5.23,11.593Z" transform="translate(-56.657 -22.472)" fill-rule="evenodd"></path><path d="M58.662,40.477A18.731,18.731,0,0,1,63.7,45.208l-8.584,19-3.313-7.366H45.532L42.219,64.2,33.647,45.191a18.714,18.714,0,0,1,5.03-4.713l6.855,15.207h6.3ZM30.684,51.367a18.646,18.646,0,0,0,9.676,21.48Z" transform="translate(-22.399 -29.914)" fill-rule="evenodd"></path><path d="M78,102.069a18.741,18.741,0,0,0,10.293,0L83.15,90.648Zm13.458-1.231A18.648,18.648,0,0,0,101.146,79.4Z" transform="translate(-56.878 -57.905)" fill-rule="evenodd"></path></g></svg>